<svg width="65" height="73" viewBox="0 0 65 73" fill="none" xmlns="http://www.w3.org/2000/svg">
<path d="M62.0389 29.8935C59.4415 29.4184 56.8063 29.1863 54.1667 29.2C52.6501 29.2 51.1695 29.2 49.689 29.492C47.8458 27.0059 45.4931 24.9516 42.7918 23.4695C45.1121 20.9081 46.4003 17.5619 46.4029 14.089C46.4029 10.3524 44.9344 6.76877 42.3203 4.12657C39.7063 1.48437 36.1609 0 32.4641 0C28.7673 0 25.2219 1.48437 22.6079 4.12657C19.9939 6.76877 18.5253 10.3524 18.5253 14.089C18.528 17.5619 19.8161 20.9081 22.1364 23.4695C19.4512 24.9593 17.1023 26.9979 15.2393 29.4555C13.8309 29.2 12.3504 29.2 10.8337 29.2C8.19195 29.2104 5.55674 29.467 2.96157 29.9665C2.12034 30.122 1.361 30.5742 0.81875 31.2426C0.276499 31.911 -0.0134665 32.7522 0.000480671 33.6165V63.729C-0.000380869 64.2652 0.115657 64.7951 0.340342 65.2808C0.565028 65.7666 0.892841 66.1963 1.30047 66.5395C1.70553 66.8847 2.18078 67.1356 2.69252 67.2744C3.20426 67.4132 3.73994 67.4364 4.26156 67.3425C6.42247 66.8668 8.62292 66.5979 10.8337 66.5395C17.8287 66.5318 24.672 68.6005 30.5141 72.489V72.489L30.9836 72.6715C31.4626 72.8816 31.9781 72.9933 32.5002 73C32.8449 72.9956 33.1865 72.934 33.5113 72.8175H33.7641L34.2336 72.635C40.1313 68.6467 47.0708 66.5246 54.1667 66.5395C56.373 66.5499 58.5734 66.7698 60.7389 67.1965C61.2605 67.2904 61.7962 67.2672 62.308 67.1284C62.8197 66.9896 63.2949 66.7387 63.7 66.3935C64.1076 66.0503 64.4355 65.6206 64.6601 65.1348C64.8848 64.6491 65.0009 64.1192 65 63.583V33.4705C64.9969 32.6187 64.6992 31.7949 64.1584 31.1416C63.6176 30.4883 62.8678 30.0468 62.0389 29.8935V29.8935ZM32.5002 7.3C34.1918 7.42562 35.7738 8.1935 36.9284 9.44943C38.083 10.7053 38.7247 12.3563 38.7247 14.0708C38.7247 15.7852 38.083 17.4362 36.9284 18.6921C35.7738 19.948 34.1918 20.7159 32.5002 20.8415V20.8415C30.8086 20.7159 29.2267 19.948 28.0721 18.6921C26.9175 17.4362 26.2758 15.7852 26.2758 14.0708C26.2758 12.3563 26.9175 10.7053 28.0721 9.44943C29.2267 8.1935 30.8086 7.42562 32.5002 7.3V7.3ZM28.8892 63.2545C23.2294 60.6102 17.0689 59.2402 10.8337 59.2395C9.64208 59.2395 8.45042 59.2395 7.22265 59.422V36.5C10.2508 36.1576 13.3103 36.219 16.3226 36.6825H16.7198C21.0228 37.4818 25.1462 39.0649 28.8892 41.3545V63.2545ZM32.5002 35.04C30.8945 34.1037 29.2298 33.2746 27.5169 32.558H27.3003C26.1086 32.0835 24.917 31.609 23.6892 31.244C26.1964 29.2269 29.2961 28.1098 32.5002 28.0685V28.0685C35.6959 28.089 38.7947 29.1801 41.3113 31.171C38.2458 32.1384 35.2919 33.4355 32.5002 35.04V35.04ZM57.7778 59.422C50.363 58.669 42.8837 59.929 36.1113 63.072V41.172C39.8611 38.9411 43.9871 37.4313 48.2807 36.719H49.0029C51.9061 36.262 54.8558 36.1884 57.7778 36.5V59.422Z" fill="white"/>
</svg>
